<svg xmlns="http://www.w3.org/2000/svg" viewBox="-6002 -2585 20 20"><defs><style>.a{fill:#45494d;fill-rule:evenodd;}</style></defs><g transform="translate(-6002 -2585)"><path class="a" d="M10,0A10,10,0,1,0,20,10,10,10,0,0,0,10,0Zm0,18.75A8.75,8.75,0,1,1,18.75,10,8.75,8.75,0,0,1,10,18.75Z"/><path class="a" d="M17.572,16.66,14.28,13.366l3.274-3.247a.62.62,0,0,0,0-.884.636.636,0,0,0-.892,0l-3.269,3.243L10.073,9.16a.632.632,0,0,0-.892.9l3.313,3.314-3.332,3.3a.621.621,0,0,0,0,.884.636.636,0,0,0,.893,0l3.327-3.3,3.3,3.3a.632.632,0,1,0,.892-.894Z" transform="translate(-3.367 -3.365)"/></g></svg>