<svg xmlns="http://www.w3.org/2000/svg" viewBox="-4841 -2102 33 33"><defs><style>.a{fill:#dbdbdb;}</style></defs><g transform="translate(-4841 -2102)"><path class="a" d="M16.5,0A16.5,16.5,0,1,0,33,16.5,16.519,16.519,0,0,0,16.5,0Zm0,31.731A15.231,15.231,0,1,1,31.731,16.5,15.249,15.249,0,0,1,16.5,31.731Z"/><path class="a" d="M28.506,16.186a.634.634,0,0,0-.9,0l-5.263,5.263-5.263-5.263a.635.635,0,1,0-.9.9l5.263,5.263-5.263,5.263a.635.635,0,1,0,.9.9l5.263-5.263,5.263,5.263a.635.635,0,0,0,.9-.9l-5.263-5.263,5.263-5.263A.634.634,0,0,0,28.506,16.186Z" transform="translate(-5.846 -5.846)"/></g></svg>