<svg xmlns="http://www.w3.org/2000/svg" viewBox="-4919.85 -2020 20.1 20"><defs><style>.a{fill:#505050;}</style></defs><g transform="translate(-4931.85 -2032.1)"><g transform="translate(12 12.1)"><path class="a" d="M-58.2-399.9a10.032,10.032,0,0,0,9.1-5.829l-1.307-.6a8.647,8.647,0,0,1-7.789,4.975,8.536,8.536,0,0,1-8.543-8.543,8.535,8.535,0,0,1,8.543-8.543,8.261,8.261,0,0,1,7.839,5.729l1.357-.5a9.728,9.728,0,0,0-9.2-6.683,9.994,9.994,0,0,0-10,10,10.026,10.026,0,0,0,10,10" transform="translate(68.2 419.9)"/><path class="a" d="M-70-410.719h6.231V-416.9h-1.558v4.623H-70v1.558" transform="translate(83.869 418.408)"/></g></g></svg>