<svg xmlns="http://www.w3.org/2000/svg" viewBox="-5070 -2020 20.101 20"><defs><style>.a{fill:#505050;}</style></defs><g transform="translate(-5082 -2032.1)"><g transform="translate(12 12.1)"><path class="a" d="M-59-399.9a10.032,10.032,0,0,1-9.1-5.829l1.307-.6A8.647,8.647,0,0,0-59-401.357a8.536,8.536,0,0,0,8.543-8.543A8.536,8.536,0,0,0-59-418.443a8.261,8.261,0,0,0-7.839,5.729l-1.357-.5A9.728,9.728,0,0,1-59-419.9a9.994,9.994,0,0,1,10,10,10.026,10.026,0,0,1-10,10" transform="translate(69.105 419.9)"/><path class="a" d="M-63.769-410.719H-70V-416.9h1.558v4.623h4.673v1.558" transform="translate(70 418.408)"/></g></g></svg>